<svg version="1" xmlns="http://www.w3.org/2000/svg" width="682.667" height="682.667" viewBox="0 0 512 512"><path d="M81.2 256.7l.3 114.8 14.2.3 14.3.3.2-49.3.3-49.3H141.2l31.5 49.2 31.6 49.3h16.9c14.4 0 16.9-.2 16.5-1.4-.3-.8-15.5-23.6-33.7-50.6-18.1-27-32.8-49.6-32.5-50.1.4-.5 1.3-.9 2.1-.9 3.4 0 18-6.5 24.9-11.1 13.4-9 22.4-21.1 26-34.9 2.6-10 1.7-30.1-1.7-39.7-6.6-18.4-21.4-30.8-44.1-36.8-14.1-3.8-24.3-4.5-62.5-4.5H81l.2 114.7zm84.6-89.3c7.6 1.9 14.9 5.5 19.6 9.7 7.9 6.9 11.9 22.1 9.8 37.6-2.5 18.6-11.6 28.7-30.7 33.9-4.5 1.2-12.1 1.8-30.2 2.1l-24.3.5v-86.5l24.8.6c17.6.4 26.5 1 31 2.1zM275 257.1v115.1l35.3-.5c36.9-.5 42.1-1.1 56.7-5.8 3.6-1.2 10.4-4.2 15.2-6.6 27.8-14.2 40.8-33.4 47.4-69.8 2.6-14.3 2.6-51.6 0-67-4.7-28.4-15-47.7-31.9-59.6-9.1-6.5-18-10.9-28.2-14.2-17.8-5.7-27.7-6.7-64.7-6.7H275v115.1zm75.8-89.5c9.2 1.8 19 6.2 24.9 11 9.1 7.5 17.7 22.7 21.3 37.5 5.9 24.7 4.9 64.8-2.1 86.9-6.1 19.1-18.7 33-36.7 40.4-9.5 3.8-15.7 4.6-35.9 4.6H304V166h19.5c13.8 0 21.9.5 27.3 1.6z"/></svg>