<?xml version="1.0" standalone="no"?>
<!DOCTYPE svg PUBLIC "-//W3C//DTD SVG 20010904//EN"
 "http://www.w3.org/TR/2001/REC-SVG-20010904/DTD/svg10.dtd">
<svg version="1.0" xmlns="http://www.w3.org/2000/svg"
 width="1024.000000pt" height="1024.000000pt" viewBox="0 0 1024.000000 1024.000000"
 preserveAspectRatio="xMidYMid meet">
<metadata>
Created by potrace 1.11, written by Peter Selinger 2001-2013
</metadata>
<g transform="translate(0.000000,1024.000000) scale(0.100000,-0.100000)"
fill="#000000" stroke="none">
<path d="M923 5112 l2 -2757 330 -1 c182 0 336 2 343 4 9 3 12 248 12 1181 l0
1176 371 0 372 0 36 -56 c20 -31 65 -102 101 -158 36 -56 90 -141 121 -189 31
-48 128 -199 216 -337 88 -137 177 -277 199 -310 21 -33 43 -68 49 -77 19 -32
217 -342 275 -428 31 -47 59 -92 63 -100 4 -8 29 -49 56 -90 28 -41 68 -104
91 -140 22 -36 100 -157 173 -270 l133 -205 412 0 c328 0 411 2 407 12 -2 7
-107 165 -231 351 -475 704 -598 888 -849 1262 -142 212 -323 481 -402 598
-79 117 -143 214 -143 216 0 2 24 10 53 16 92 22 299 100 412 157 298 149 520
344 683 598 39 61 107 223 133 315 45 163 58 279 54 490 -3 197 -26 347 -75
490 -161 470 -529 771 -1120 916 -126 30 -266 53 -420 69 -30 3 -80 8 -110 11
-30 3 -436 8 -902 10 l-847 3 2 -2757z m1752 2185 c11 -2 52 -8 90 -12 39 -3
88 -10 110 -15 22 -5 53 -11 69 -14 54 -10 220 -68 280 -98 154 -78 268 -190
337 -331 27 -57 56 -135 63 -173 2 -10 9 -37 15 -59 28 -105 31 -411 6 -535
-2 -8 -6 -32 -10 -52 -11 -66 -63 -208 -100 -274 -97 -173 -256 -300 -475
-378 -86 -32 -213 -63 -285 -71 -27 -3 -61 -9 -75 -12 -14 -3 -265 -8 -557
-10 l-533 -5 0 1026 0 1025 523 -3 c287 -2 531 -6 542 -9z"/>
<path d="M5570 5112 l0 -2757 703 1 c617 1 857 5 947 19 14 2 45 7 70 10 54 8
185 32 220 40 14 3 36 8 50 11 41 8 130 34 224 66 352 117 675 310 908 541
149 148 253 298 354 513 47 100 136 344 148 405 2 13 13 60 24 104 12 44 23
94 26 110 16 84 35 205 40 245 3 25 8 72 12 105 3 33 8 68 10 79 24 134 24
920 -1 1077 -2 13 -6 49 -10 79 -14 123 -26 206 -40 280 -13 62 -16 77 -21
105 -11 66 -68 266 -104 365 -105 293 -244 515 -433 695 -112 107 -144 133
-262 212 -376 251 -807 389 -1375 440 -36 3 -386 7 -777 9 l-713 4 0 -2758z
m1610 2175 c19 -4 55 -9 80 -12 158 -20 387 -88 515 -153 247 -124 453 -361
600 -688 43 -98 110 -303 121 -373 3 -20 8 -39 10 -42 2 -4 6 -24 9 -45 4 -22
12 -77 20 -124 31 -189 48 -445 49 -720 0 -139 -10 -395 -18 -460 -2 -14 -7
-56 -10 -93 -4 -37 -9 -76 -10 -85 -2 -9 -6 -39 -10 -67 -28 -206 -102 -471
-178 -640 -138 -305 -377 -545 -706 -709 -84 -42 -286 -111 -350 -120 -24 -3
-46 -7 -50 -10 -4 -2 -34 -7 -67 -10 -33 -4 -69 -10 -80 -13 -25 -8 -808 -11
-827 -3 -11 4 -13 357 -13 2193 l0 2189 440 -5 c242 -2 456 -7 475 -10z"/>
</g>
</svg>
