<svg version="1.0" xmlns="http://www.w3.org/2000/svg" width="682.667" height="682.667" viewBox="0 0 512 512"><path d="M369.1 196.7c-9.4 18.9-59 121.8-59.3 123.2-.2.8 1.8 2.3 5 3.7l5.3 2.4 4.3-9.2c2.4-5.1 17-35.4 32.5-67.2 15.4-31.9 28-58 27.8-58.2-1-.8-8.8-4.4-9.7-4.4-.5 0-3.2 4.4-5.9 9.7zM134 257.5V310h14v-45h6.8l6.7.1 14.1 22.2 14.1 22.2 8.3.3c6.9.2 8.2 0 7.7-1.2-.3-.8-7.2-11.2-15.2-23.1-8.1-11.9-14.6-21.7-14.4-21.9.2-.1 2.6-1 5.2-2 6.8-2.6 13.8-8.4 16.7-14.2 3.4-6.6 3.5-19.8.3-25.9-4.1-7.9-11.7-13.2-22.1-15.4-2.9-.6-13.6-1.1-23.7-1.1H134v52.5zm43.9-38.5c5.7 3.2 8.1 7.7 8.1 15.3 0 7.1-1.7 11.5-5.9 15-4.4 3.7-9 4.7-21.3 4.7H148v-38.2l12.8.4c11.2.3 13.2.7 17.1 2.8zM222 257.5v52.7l18.8-.4c17-.4 19.3-.6 25.3-2.9 8.3-3.2 16-8.8 19.9-14.3 6.6-9.7 9.9-28.3 8-45.8-2.4-21.9-9.9-32.5-27.5-38.9-5.2-1.9-8.6-2.3-25.2-2.7l-19.3-.4v52.7zm39.2-39.4c9.6 3.1 16 13.3 17.8 28.4 2.6 21.3-2.2 39.5-12.3 46.3-6.9 4.6-9.7 5.4-20.4 6l-10.3.5v-83.6l10.8.6c5.9.3 12.4 1.1 14.4 1.8zM70.5 236.9l-29 17.9v14.6l14 8.8c7.7 4.8 20.7 12.9 28.8 17.9l14.8 9.2 1.7-2.3c.9-1.3 2.5-3.6 3.5-5.1l1.8-2.7-19.3-12c-10.6-6.6-22.6-14-26.6-16.5l-7.3-4.5 25.3-15.6c13.9-8.6 25.9-16 26.7-16.5 1.2-.8.8-1.8-1.8-6-1.8-2.8-3.4-5.1-3.5-5.1-.1 0-13.2 8.1-29.1 17.9zM409 223.7c-1.6 2.6-3 5-3 5.4 0 .3 11.7 7.8 26 16.5s26 16.2 26 16.5c0 .3-11.6 7.7-25.7 16.4-14.2 8.7-26 16-26.2 16.2-.6.4 1.6 4.2 4.4 7.7l2.3 2.9 29.1-18.2 29.1-18.2v-13.5L442.9 238c-15.5-9.6-28.8-17.9-29.5-18.3-1-.6-2.3.6-4.4 4z"/></svg>