<svg version="1" xmlns="http://www.w3.org/2000/svg" width="1365.333" height="1365.333" viewBox="0 0 1024 1024">
  <path
    d="M92.3 512.8l.2 275.7 33 .1c18.2 0 33.6-.2 34.3-.4.9-.3 1.2-24.8 1.2-118.1V552.5H235.3l3.6 5.6c2 3.1 6.5 10.2 10.1 15.8 3.6 5.6 9 14.1 12.1 18.9 3.1 4.8 12.8 19.9 21.6 33.7 8.8 13.7 17.7 27.7 19.9 31 2.1 3.3 4.3 6.8 4.9 7.7 1.9 3.2 21.7 34.2 27.5 42.8 3.1 4.7 5.9 9.2 6.3 10 .4.8 2.9 4.9 5.6 9 2.8 4.1 6.8 10.4 9.1 14 2.2 3.6 10 15.7 17.3 27l13.3 20.5h41.2c32.8 0 41.1-.2 40.7-1.2-.2-.7-10.7-16.5-23.1-35.1-47.5-70.4-59.8-88.8-84.9-126.2-14.2-21.2-32.3-48.1-40.2-59.8-7.9-11.7-14.3-21.4-14.3-21.6 0-.2 2.4-1 5.3-1.6 9.2-2.2 29.9-10 41.2-15.7 29.8-14.9 52-34.4 68.3-59.8 3.9-6.1 10.7-22.3 13.3-31.5 4.5-16.3 5.8-27.9 5.4-49-.3-19.7-2.6-34.7-7.5-49-16.1-47-52.9-77.1-112-91.6-12.6-3-26.6-5.3-42-6.9l-11-1.1c-3-.3-43.6-.8-90.2-1l-84.7-.3.2 275.7zm175.2-218.5c1.1.2 5.2.8 9 1.2 3.9.3 8.8 1 11 1.5 2.2.5 5.3 1.1 6.9 1.4 5.4 1 22 6.8 28 9.8 15.4 7.8 26.8 19 33.7 33.1 2.7 5.7 5.6 13.5 6.3 17.3.2 1 .9 3.7 1.5 5.9 2.8 10.5 3.1 41.1.6 53.5-.2.8-.6 3.2-1 5.2-1.1 6.6-6.3 20.8-10 27.4-9.7 17.3-25.6 30-47.5 37.8-8.6 3.2-21.3 6.3-28.5 7.1-2.7.3-6.1.9-7.5 1.2-1.4.3-26.5.8-55.7 1l-53.3.5V293.1l52.3.3c28.7.2 53.1.6 54.2.9zM557 512.8v275.7l70.3-.1c61.7-.1 85.7-.5 94.7-1.9 1.4-.2 4.5-.7 7-1 5.4-.8 18.5-3.2 22-4 1.4-.3 3.6-.8 5-1.1 4.1-.8 13-3.4 22.4-6.6 35.2-11.7 67.5-31 90.8-54.1 14.9-14.8 25.3-29.8 35.4-51.3 4.7-10 13.6-34.4 14.8-40.5.2-1.3 1.3-6 2.4-10.4 1.2-4.4 2.3-9.4 2.6-11 1.6-8.4 3.5-20.5 4-24.5.3-2.5.8-7.2 1.2-10.5.3-3.3.8-6.8 1-7.9 2.4-13.4 2.4-92-.1-107.7-.2-1.3-.6-4.9-1-7.9-1.4-12.3-2.6-20.6-4-28-1.3-6.2-1.6-7.7-2.1-10.5-1.1-6.6-6.8-26.6-10.4-36.5-10.5-29.3-24.4-51.5-43.3-69.5-11.2-10.7-14.4-13.3-26.2-21.2-37.6-25.1-80.7-38.9-137.5-44-3.6-.3-38.6-.7-77.7-.9L557 237v275.8zm161-217.5c1.9.4 5.5.9 8 1.2 15.8 2 38.7 8.8 51.5 15.3 24.7 12.4 45.3 36.1 60 68.8 4.3 9.8 11 30.3 12.1 37.3.3 2 .8 3.9 1 4.2.2.4.6 2.4.9 4.5.4 2.2 1.2 7.7 2 12.4 3.1 18.9 4.8 44.5 4.9 72 0 13.9-1 39.5-1.8 46-.2 1.4-.7 5.6-1 9.3-.4 3.7-.9 7.6-1 8.5-.2.9-.6 3.9-1 6.7-2.8 20.6-10.2 47.1-17.8 64-13.8 30.5-37.7 54.5-70.6 70.9-8.4 4.2-28.6 11.1-35 12-2.4.3-4.6.7-5 1-.4.2-3.4.7-6.7 1-3.3.4-6.9 1-8 1.3-2.5.8-80.8 1.1-82.7.3-1.1-.4-1.3-35.7-1.3-219.3V293.8l44 .5c24.2.2 45.6.7 47.5 1z"/>
</svg>
